<?xml version="1.0" encoding="utf-8"?>
<!-- Generator: Adobe Illustrator 25.0.0, SVG Export Plug-In . SVG Version: 6.00 Build 0)  -->
<svg version="1.1" id="Layer_1" xmlns="http://www.w3.org/2000/svg" xmlns:xlink="http://www.w3.org/1999/xlink" x="0px" y="0px"
	 viewBox="0 0 1280 1280" style="enable-background:new 0 0 1280 1280;" xml:space="preserve">
<style type="text/css">
	.st0{fill:#7A0696;stroke:#010002;stroke-miterlimit:10;}
	.st1{fill:#DAA59D;stroke:#000000;stroke-miterlimit:10;}
	.st2{fill:#931A1D;stroke:#000000;stroke-miterlimit:10;}
	.st3{fill:#FED231;stroke:#000000;stroke-miterlimit:10;}
	.st4{fill:#DAA59D;}
</style>
<path class="st0" d="M296.1,85.3C345.4,98-2.6,1321,0,1278.9c2.6-42.1,1099.2-200.2,1199.2-504.8
	C1299.3,469.5,246.8,72.4,296.1,85.3z"/>
<path class="st1" d="M432.8,314l-189.6,711.4c0,0,728.3-116.3,793.1-297.9C1100.9,546.1,432.8,314,432.8,314z"/>
<path class="st2" d="M1438,1108"/>
<path class="st3" d="M470.2,14.7L243.3,1025.2c0,0,595.2,17.9,958.6-380S470.2,14.7,470.2,14.7"/>
<path class="st4" d="M610.6,206.6L462.9,793.9c0,0,430.2,12,686.5-218.4S610.6,206.6,610.6,206.6"/>
<path class="st2" d="M1585.8,890.7"/>
<path d="M1862,751.3c-6.4,0-6.4,10,0,10S1868.4,751.3,1862,751.3z"/>
</svg>
