<?xml version="1.0" encoding="utf-8"?>
<!-- Generator: Adobe Illustrator 26.0.1, SVG Export Plug-In . SVG Version: 6.00 Build 0)  -->
<svg version="1.1" id="Layer_1" xmlns="http://www.w3.org/2000/svg" xmlns:xlink="http://www.w3.org/1999/xlink" x="0px" y="0px"
	 viewBox="0 0 1520 1279" style="enable-background:new 0 0 1520 1279;" xml:space="preserve">
<style type="text/css">
	.st0{fill:#7524D3;}
	.st1{fill:url(#SVGID_1_);}
	.st2{fill:url(#SVGID_00000151520968876788844410000003670206364343857808_);}
	.st3{fill:url(#SVGID_00000132046703768295988360000010308410231997152906_);}
	.st4{fill:url(#SVGID_00000034076245151991690690000003404143837190089101_);}
	.st5{fill:#FFFFFF;}
	.st6{fill:url(#SVGID_00000101807967091632379470000017243694553253440902_);}
	.st7{fill:url(#SVGID_00000152949726640917587640000004805836959015660479_);}
</style>
<path class="st0" d="M1163.6,630.4"/>
<g>
	
		<linearGradient id="SVGID_1_" gradientUnits="userSpaceOnUse" x1="423.0414" y1="173.0536" x2="428.9073" y2="816.8194" gradientTransform="matrix(1 0 0 1 0 200)">
		<stop  offset="0" style="stop-color:#7524D3"/>
		<stop  offset="0.3699" style="stop-color:#7723D4"/>
		<stop  offset="0.5283" style="stop-color:#7E22D6"/>
		<stop  offset="0.6463" style="stop-color:#8B1EDA"/>
		<stop  offset="0.7443" style="stop-color:#9D1AE0"/>
		<stop  offset="0.8298" style="stop-color:#B414E7"/>
		<stop  offset="0.9066" style="stop-color:#D00CF0"/>
		<stop  offset="0.9754" style="stop-color:#F104FB"/>
		<stop  offset="1" style="stop-color:#FF00FF"/>
	</linearGradient>
	<path class="st1" d="M375.1,1069.1c26.7-108.2,48.3-240.4,50.1-391.2c2-168.1-21.3-314.1-50.1-430.9
		c33.4-32.1,66.8-64.1,100.2-96.2c-1.8,351.4-3.5,702.8-5.3,1054.3C438.3,1159.8,406.7,1114.5,375.1,1069.1z"/>
</g>
<g>
	
		<linearGradient id="SVGID_00000115490348566509289120000009555111553201284243_" gradientUnits="userSpaceOnUse" x1="1073.1354" y1="105.1964" x2="1076.4314" y2="794.7429" gradientTransform="matrix(1 0 0 1 0 200)">
		<stop  offset="0" style="stop-color:#7524D3"/>
		<stop  offset="0.3699" style="stop-color:#7723D4"/>
		<stop  offset="0.5283" style="stop-color:#7E22D6"/>
		<stop  offset="0.6463" style="stop-color:#8B1EDA"/>
		<stop  offset="0.7443" style="stop-color:#9D1AE0"/>
		<stop  offset="0.8298" style="stop-color:#B414E7"/>
		<stop  offset="0.9066" style="stop-color:#D00CF0"/>
		<stop  offset="0.9754" style="stop-color:#F104FB"/>
		<stop  offset="1" style="stop-color:#FF00FF"/>
	</linearGradient>
	<path style="fill:url(#SVGID_00000115490348566509289120000009555111553201284243_);" d="M1123.7,1064.1
		c-27.3-112.2-49.4-249.2-51.3-405.6c-2-174.3,21.8-325.7,51.3-446.8c-34.2-33.3-68.3-66.5-102.5-99.8
		c1.8,364.4,3.6,728.8,5.4,1093.2C1059,1158.1,1091.4,1111.1,1123.7,1064.1z"/>
</g>
<linearGradient id="SVGID_00000085217126831450120970000012367482396604027316_" gradientUnits="userSpaceOnUse" x1="850.679" y1="424.8024" x2="1111.1855" y2="890.8224" gradientTransform="matrix(1 0 0 1 0 200)">
	<stop  offset="0" style="stop-color:#7524D3"/>
	<stop  offset="0.3699" style="stop-color:#7723D4"/>
	<stop  offset="0.5283" style="stop-color:#7E22D6"/>
	<stop  offset="0.6463" style="stop-color:#8B1EDA"/>
	<stop  offset="0.7443" style="stop-color:#9D1AE0"/>
	<stop  offset="0.8298" style="stop-color:#B414E7"/>
	<stop  offset="0.9066" style="stop-color:#D00CF0"/>
	<stop  offset="0.9754" style="stop-color:#F104FB"/>
	<stop  offset="1" style="stop-color:#FF00FF"/>
</linearGradient>
<path style="fill:url(#SVGID_00000085217126831450120970000012367482396604027316_);" d="M1183.8,1068.4
	c3.4,60.9,6.8,121.7,10.2,182.6c-45.1-98.2-103.2-206.7-178.7-321.5c-89.7-136.4-185.4-253.6-276.1-351.8
	c0.6-23.8,1.2-47.6,1.8-71.4c0.2-7.6,0.7-27.5,0.8-34.6c0.2-8.6,0.7-28.4,0.9-36.8C816.2,540.5,889.7,646.1,1183.8,1068.4z"/>
<linearGradient id="SVGID_00000075841085292166752260000013688998945071154358_" gradientUnits="userSpaceOnUse" x1="643.0872" y1="377.36" x2="357.2148" y2="928.2858" gradientTransform="matrix(1 0 0 1 0 200)">
	<stop  offset="0" style="stop-color:#7524D3"/>
	<stop  offset="0.3699" style="stop-color:#7723D4"/>
	<stop  offset="0.5283" style="stop-color:#7E22D6"/>
	<stop  offset="0.6463" style="stop-color:#8B1EDA"/>
	<stop  offset="0.7443" style="stop-color:#9D1AE0"/>
	<stop  offset="0.8298" style="stop-color:#B414E7"/>
	<stop  offset="0.9066" style="stop-color:#D00CF0"/>
	<stop  offset="0.9754" style="stop-color:#F104FB"/>
	<stop  offset="1" style="stop-color:#FF00FF"/>
</linearGradient>
<path style="fill:url(#SVGID_00000075841085292166752260000013688998945071154358_);" d="M293.3,1068.4
	c-3.4,60.9-6.8,121.7-10.2,182.6c45.1-98.2,103.2-206.7,178.7-321.5c89.7-136.4,185.4-253.6,276.1-351.8
	c-1.2-47.6-2.3-95.2-3.5-142.8C587.4,646.1,440.3,857.2,293.3,1068.4z"/>
<path class="st0" d="M935,539"/>
<path class="st0" d="M994.6,841.4"/>
<path class="st0" d="M838,907"/>
<ellipse transform="matrix(0.9708 -0.2401 0.2401 0.9708 -32.5159 186.2733)" class="st0" cx="748.2" cy="226.6" rx="62.4" ry="62.3"/>
<path class="st5" d="M718,356"/>
<linearGradient id="SVGID_00000028311778933468531620000003719007149232956296_" gradientUnits="userSpaceOnUse" x1="1281.7579" y1="692.379" x2="1281.7579" y2="692.379">
	<stop  offset="0" style="stop-color:#7524D3"/>
	<stop  offset="0.3699" style="stop-color:#7723D4"/>
	<stop  offset="0.5283" style="stop-color:#7E22D6"/>
	<stop  offset="0.6463" style="stop-color:#8B1EDA"/>
	<stop  offset="0.7443" style="stop-color:#9D1AE0"/>
	<stop  offset="0.8298" style="stop-color:#B414E7"/>
	<stop  offset="0.9066" style="stop-color:#D00CF0"/>
	<stop  offset="0.9754" style="stop-color:#F104FB"/>
	<stop  offset="1" style="stop-color:#FF00FF"/>
</linearGradient>
<path style="fill:url(#SVGID_00000028311778933468531620000003719007149232956296_);" d="M1281.8,692.4"/>
<linearGradient id="SVGID_00000067236268044941308860000012765682074682850976_" gradientUnits="userSpaceOnUse" x1="754.9753" y1="508.1433" x2="759.8874" y2="1047.2225">
	<stop  offset="0" style="stop-color:#7524D3"/>
	<stop  offset="0.3699" style="stop-color:#7723D4"/>
	<stop  offset="0.5283" style="stop-color:#7E22D6"/>
	<stop  offset="0.6463" style="stop-color:#8B1EDA"/>
	<stop  offset="0.7443" style="stop-color:#9D1AE0"/>
	<stop  offset="0.8298" style="stop-color:#B414E7"/>
	<stop  offset="0.9066" style="stop-color:#D00CF0"/>
	<stop  offset="0.9754" style="stop-color:#F104FB"/>
	<stop  offset="1" style="stop-color:#FF00FF"/>
</linearGradient>
<polygon style="fill:url(#SVGID_00000067236268044941308860000012765682074682850976_);" points="696.3,322.9 696.3,1062.6 
	769.2,1205.1 823.7,1056.6 799.5,322.9 "/>
</svg>
