<svg width="124" height="37" viewBox="0 0 124 37" fill="none" xmlns="http://www.w3.org/2000/svg">
<path d="M41.336 34.5C39.7026 34.5 38.1409 34.3254 36.6509 33.9761C35.1608 33.5977 33.8427 33.03 32.6965 32.2732C31.5503 31.4873 30.6477 30.5268 29.9886 29.3915C29.3295 28.2272 29 26.8592 29 25.2873C29 25.1127 29 24.938 29 24.7634C29.0287 24.5887 29.043 24.4577 29.043 24.3704H34.6737C34.6737 24.4286 34.6594 24.5451 34.6307 24.7197C34.6307 24.8653 34.6307 24.9962 34.6307 25.1127C34.6307 26.0732 34.9029 26.9028 35.4474 27.6014C35.9918 28.2709 36.7798 28.7948 37.8114 29.1732C38.843 29.5225 40.0608 29.6972 41.4649 29.6972C42.4105 29.6972 43.2415 29.639 43.9579 29.5225C44.7029 29.4061 45.3333 29.246 45.8491 29.0423C46.3936 28.8094 46.8377 28.5474 47.1816 28.2563C47.5254 27.9361 47.769 27.5869 47.9123 27.2085C48.0842 26.83 48.1702 26.4225 48.1702 25.9859C48.1702 25.1418 47.9123 24.4432 47.3965 23.8901C46.8807 23.3371 46.1787 22.8714 45.2904 22.493C44.4307 22.1146 43.4421 21.7798 42.3246 21.4887C41.2357 21.1685 40.1038 20.8484 38.929 20.5282C37.7828 20.208 36.6509 19.8296 35.5333 19.393C34.4444 18.9272 33.4558 18.3742 32.5675 17.7338C31.7079 17.0934 31.0202 16.293 30.5044 15.3324C29.9886 14.3427 29.7307 13.1638 29.7307 11.7958C29.7307 10.3986 30.0173 9.17606 30.5904 8.12817C31.1921 7.08028 32.0231 6.2216 33.0833 5.55211C34.1722 4.85352 35.433 4.34413 36.8658 4.02394C38.2985 3.67465 39.8602 3.5 41.5509 3.5C43.1269 3.5 44.6026 3.67465 45.9781 4.02394C47.3822 4.34413 48.6143 4.86808 49.6746 5.59577C50.7348 6.29437 51.5658 7.19671 52.1676 8.30282C52.7693 9.37981 53.0702 10.6751 53.0702 12.1887V12.7127H47.5254V12.2761C47.5254 11.4319 47.2676 10.7188 46.7518 10.1366C46.2646 9.55446 45.5626 9.10329 44.6456 8.7831C43.7573 8.46291 42.7114 8.30282 41.5079 8.30282C40.2184 8.30282 39.1152 8.4338 38.1982 8.69577C37.2813 8.92864 36.5792 9.29249 36.0921 9.78732C35.605 10.253 35.3614 10.8352 35.3614 11.5338C35.3614 12.2615 35.6193 12.8728 36.1351 13.3676C36.6509 13.8624 37.3386 14.2845 38.1982 14.6338C39.0866 14.9831 40.0752 15.3033 41.164 15.5944C42.2816 15.8854 43.4135 16.2056 44.5597 16.5549C45.7345 16.8751 46.8664 17.2535 47.9553 17.6901C49.0728 18.1268 50.0614 18.6798 50.9211 19.3493C51.8094 19.9897 52.5114 20.7901 53.0272 21.7507C53.543 22.7113 53.8009 23.861 53.8009 25.2C53.8009 27.4413 53.2564 29.246 52.1676 30.6141C51.1073 31.9822 49.6316 32.9718 47.7404 33.5831C45.8778 34.1944 43.743 34.5 41.336 34.5Z" fill="black"/>
<path d="M89.4753 33.9761V4.02394H95.0631V33.9761H89.4753Z" fill="black"/>
<path d="M99.586 33.9761V31.269L115.318 8.87042H100.703V4.02394H123.613V6.77465L107.882 29.1296H124V33.9761H99.586Z" fill="black"/>
<path d="M1.51599 35.3746L1.35391 36H2H5.69219H6.07914L6.17621 35.6254L14.9871 1.62543L15.1492 1H14.5031H10.8109H10.424L10.3269 1.37457L1.51599 35.3746ZM14.0129 35.3746L13.8508 36H14.4969H18.1891H18.576L18.6731 35.6254L27.484 1.62543L27.6461 1H27H23.3078H22.9209L22.8238 1.37457L14.0129 35.3746Z" fill="black" stroke="black"/>
<path d="M67.5385 4.5L56 33.5H61.7692L71 9.01948L79.8462 33.5H86L74.4615 4.5H67.5385Z" fill="black"/>
</svg>
